<!DOCTYPE svg PUBLIC "-//W3C//DTD SVG 1.0//EN" "http://www.w3.org/TR/2001/REC-SVG-20010904/DTD/svg10.dtd"><svg version="1.0" id="Layer_1" xmlns="http://www.w3.org/2000/svg" xmlns:xlink="http://www.w3.org/1999/xlink" x="0px" y="0px" width="100%" height="auto" viewBox="0 0 375 319" enable-background="new 0 0 375 319" xml:space="preserve"><style>text,tspan{font-family:'Sarabun','Noto Sans Thai',sans-serif !important;font-weight:600 !important;}</style><g><defs><rect id="SVGID_1_" x="113.505" y="15.611" width="236.933" height="287.012"/></defs><clipPath id="SVGID_2_"><use xlink:href="#SVGID_1_" overflow="visible"/></clipPath><path clip-path="url(#SVGID_2_)" fill="#FAF0EB" stroke="#1D1D1B" stroke-width="0.5" d="M245.62-43.892 c-2.341,9.271-3.508,17.829,0.391,28.525c2.617,7.177-0.074,29.231-1.562,39.582c-3.118,21.75-21.839,36.372-35.487,49.208 c-13.647,12.837-53.608,49.697-64.739,77.379c-9.75,24.244-10.921,60.261-3.511,75.237c7.414,14.976,23.011,35.66,62.399,47.781 c17.774,5.472,39.547,22.767,43.839,33.824l35.191-2.109l19.066-342.044L245.62-43.892z"/><g clip-path="url(#SVGID_2_)"><path fill="#F0D1C5" stroke="#E5AB97" stroke-width="0.75" d="M243.267-44.486c-2.642,10.461-3.483,19.121,0.463,29.951 c1.72,4.72,1.092,19.077-1.683,38.406c-2.629,18.329-17.025,31.512-29.726,43.143l-5.023,4.641l-1.601,1.503 c-15.799,14.834-52.804,49.574-63.726,76.74c-9.772,24.296-11.408,61.102-3.435,77.22c11.541,23.316,32.43,39.351,63.86,49.025 l5.592,1.692c18.803,6.017,33.298,21.929,36.698,30.688l0.769,1.977l39.921-2.373l18.454-346.736l-60.035-7.974L243.267-44.486z M209.385,273.183l-5.559-1.682c-30.087-9.258-50.02-24.481-60.938-46.537c-3.081-6.226-4.561-16.118-4.561-27.186 c0-15.291,2.823-32.829,8.147-46.069c10.522-26.173,48.315-61.654,62.546-75.012l1.603-1.505l4.976-4.597 c13.301-12.181,28.379-25.987,31.253-46.034c1.163-8.106,2.673-20.448,2.673-29.92c0-4.525-0.343-8.396-1.235-10.838 c-1.691-4.64-2.387-8.868-2.387-13.068c0-3.892,0.619-7.778,1.579-11.931c3.855,0.512,47.051,6.251,51.106,6.79 c-0.396,4.532-16.797,333.932-17.095,337.354c-2.897,0.694-29.856,1.08-33.156,1.87 C243.479,295.354,228.087,279.318,209.385,273.183z"/></g><path clip-path="url(#SVGID_2_)" fill="#F4D9CE" stroke="#E5AB97" stroke-width="0.75" d="M290.369,303.961 c-0.521-17.118-1.461-271.783,23.499-343.1h4.16c-24.958,71.317-24.106,329.5-23.586,346.618"/><path clip-path="url(#SVGID_2_)" fill="#E8B29E" stroke="#E5AB97" stroke-width="0.75" d="M298.125-42.142 c-6.759,20.44-22.539,111.475-22.939,160.611c-0.087,10.667-6.85,68.565-5.821,75.766c1.03,7.202-4.729,9.745-9.071-1.338 c-9.226-23.547,0.854-133.6,1.538-142.993c0.686-9.393,6.959-92.726,6.959-92.726"/><path clip-path="url(#SVGID_2_)" fill="#E8B29E" d="M276.638,308.449c-11.005-55.024-1.768-276.627,23.189-347.944h14.041 c-24.96,71.316-23.83,329.857-23.31,346.974"/><path clip-path="url(#SVGID_2_)" fill="#F4D9CE" stroke="#E5AB97" stroke-width="0.75" d="M255.5,125.959 c0.645-16.636,8.579-123.853,9.798-147.328l2.729-0.356c-1.216,23.475-9.15,130.691-9.795,147.328 c-0.508,13.087-1.993,64.188,9.472,74.052c4.295-81.024,13.216-193.68,29.005-238.794h3.119 c-27.72,121.662-31.604,307.453-21.247,346.941l-6.148,0.325c-0.18-5.956-7.314-57.644-5.109-101.087 C251.108,196.455,254.979,139.353,255.5,125.959z"/><path clip-path="url(#SVGID_2_)" fill="#E5AB97" stroke="#E5AB97" stroke-width="0.75" d="M140.94,161.85 c0.732,0.076,1.163,3.643,1.282,5.519c0.128,1.997-0.039,4.583-0.34,8.157c-0.239,2.879-0.366,5.345-0.647,8.201 c-0.368,3.701-2.211,12.125-1.434,16.64c0.503,2.903,0.911,8.2,0.393,13.669c-0.192,1.99-0.986,4.606-2.018,4.522 c-0.704-0.06-1.235-0.571-1.923-1.936c-1.157-2.291-2.249-5.991-3.207-9.243c-0.699-2.366-1.223-5.435-3.512-6.179 c-3.346-1.091-6.242-2.618-6.887-5.944c-0.652-3.328-0.545-6.188,2.465-9.034c1.381-1.301,3.179-2.593,5.07-3.208 c2.711-0.884,2.34,0.593,3.252-3.091c0.908-3.686,2.792-10.094,4.546-14.146C139.078,163.259,140.043,161.759,140.94,161.85z"/><path clip-path="url(#SVGID_2_)" fill="#FFFFFF" d="M305.411,2.226c0.303-6.178-0.259-12.361-4.939-8.083 c-4.68,4.279-9.876,9.509-10.66,19.731c-0.781,10.223,1.038,18.304,5.98,11.174C300.711,17.947,304.893,12.924,305.411,2.226z"/><path clip-path="url(#SVGID_2_)" fill="#FFFFFF" d="M297.607,65.936c0.137-5.711-3.211-8.322-6.424-5.469 c-3.209,2.853-8.662,6.658-9.63,11.887c-0.961,5.23-1.604,7.845,0,10.935c1.607,3.091,4.174,2.853,6.741,1.426 C293.231,81.975,297.287,79.485,297.607,65.936z"/><path clip-path="url(#SVGID_2_)" fill="#FFFFFF" d="M293.112,128.216c1.345-7.367-1.688-9.507-7.417-5.941 c-4.699,2.924-3.37,2.852-6.404,5.468c-3.052,2.633-2.359,4.515-2.691,11.174c-0.339,6.655-0.764,11.055,4.714,8.081 c4.382-2.376,5.731-2.852,8.424-4.752C292.518,140.283,292.877,129.488,293.112,128.216z"/><path clip-path="url(#SVGID_2_)" fill="#FFFFFF" d="M291.442,190.976c0.503-5.231,0-4.753,0.34-7.845 c0.346-3.089-2.397-3.802-6.17-2.613c-3.771,1.188-8.008,2.479-10.063,4.146c-2.055,1.663-1.933,13.445-1.933,17.962 c0,4.514-1.714,6.894,4.114,3.326c5.825-3.564,4.343-2.988,7.882-4.279C292.128,199.296,291.205,193.442,291.442,190.976z"/><path clip-path="url(#SVGID_2_)" fill="#FFFFFF" d="M290.717,237.92c-0.855-5.436-0.335-7.134-6.387-5.945 c-5.362,1.055-7.736,0.478-9.417,3.091c-1.682,2.616-1.01,11.175-0.673,14.264c0.34,3.089-0.337,3.33,2.021,5.705 c2.353,2.378,2.353,2.853,6.388,0.713c4.035-2.138,3.364-1.426,6.053-3.804C291.393,249.566,291.055,240.058,290.717,237.92z"/><g clip-path="url(#SVGID_2_)"><path fill="none" d="M282.985,241.246c5.379,2.614-1.682,5.706-1.682,1.664"/></g><g clip-path="url(#SVGID_2_)"><path fill="none" d="M280.967,239.583c0,0.475-0.337,0.948-1.01,1.188c-0.673,0-0.673-0.24-1.344-0.477"/></g><g clip-path="url(#SVGID_2_)"><path fill="none" d="M284.33,237.442c0.671,0.714,1.008,1.192,0.671,1.905c-0.335,0.476-0.671,0-1.008,0"/></g><g clip-path="url(#SVGID_2_)"><path fill="none" d="M281.304,236.253c0,0.712,0,0.953-0.337,1.428c-1.345,0.238-1.345-0.476-2.018-1.188"/></g><g clip-path="url(#SVGID_2_)"><path fill="none" d="M286.009,234.828c0.335,0.714,0.335,1.188-0.671,1.188"/></g><g clip-path="url(#SVGID_2_)"><path fill="none" d="M285.001,246.952c2.02,1.9,0.675,3.092-1.68,1.9"/></g><g clip-path="url(#SVGID_2_)"><path fill="none" d="M280.63,245.289c2.355,3.328-4.036,2.614-2.354-0.237"/></g><g clip-path="url(#SVGID_2_)"><path fill="none" d="M281.304,249.803c0.336,0.714,0.671,1.19,0.671,1.667c-1.008,0.235-1.345,0-2.018,0"/></g><g clip-path="url(#SVGID_2_)"><path fill="none" d="M277.941,250.518c0.335,0.476,0.672,0.713,0,1.188c-0.675-0.235-0.675-0.475-1.348-0.712"/></g><g clip-path="url(#SVGID_2_)"><path fill="none" d="M283.899,188.361c5.827,1.903-2.741,4.995-2.058,0.714"/></g><g clip-path="url(#SVGID_2_)"><path fill="none" d="M285.956,184.322c0.345,0.238,0.687,0.475,0.687,1.188c-0.342,0.239-0.687,0.239-1.03,0.239 c-0.686,1.424-1.713,1.187-2.4-0.239"/></g><g clip-path="url(#SVGID_2_)"><path fill="none" d="M279.445,186.459c0.342,0.713,0.685,0.713,0.342,1.426c-0.686-0.237-0.686-0.475-1.029-0.95"/></g><g clip-path="url(#SVGID_2_)"><path fill="none" d="M279.102,192.164"/></g><g clip-path="url(#SVGID_2_)"><path fill="none" d="M284.585,193.831c2.741,2.615-1.373,4.042-2.398,1.187"/></g><g clip-path="url(#SVGID_2_)"><path fill="none" d="M278.758,195.017c0.688,0.713,1.372,1.428,0,1.189"/></g><g clip-path="url(#SVGID_2_)"><path fill="none" d="M281.502,197.872c0,3.329-6.172,2.137-4.113-0.716"/></g><g clip-path="url(#SVGID_2_)"><path fill="none" d="M288.699,191.928c0,1.663-1.031,2.139-3.087,1.188"/></g><g clip-path="url(#SVGID_2_)"><path fill="none" d="M278.415,189.551c0.343,0.95,0,1.425-1.026,1.664"/></g><g clip-path="url(#SVGID_2_)"><path fill="none" d="M284.686,133.449c7.412,0-3.034,6.656-2.022,1.188"/></g><g clip-path="url(#SVGID_2_)"><path fill="none" d="M281.989,130.596c0.336,0.712,0.336,1.188-0.338,1.663c-0.676,0-0.676-0.237-1.346-0.475"/></g><g clip-path="url(#SVGID_2_)"><path fill="none" d="M288.393,129.408c0,0.712,0.335,0.949-0.338,1.426c-1.01,0.237-1.348,0-2.022-0.477"/></g><g clip-path="url(#SVGID_2_)"><path fill="none" d="M284.348,128.216"/></g><g clip-path="url(#SVGID_2_)"><path fill="none" d="M287.72,125.841c0,0.713-0.34,1.19-1.013,1.426"/></g><g clip-path="url(#SVGID_2_)"><path fill="none" d="M283.671,127.744c0.339,0.473,0.339,0.951,0,1.426c-0.672,0-1.008-0.238-1.346-0.475"/></g><g clip-path="url(#SVGID_2_)"><path fill="none" d="M280.643,139.392c0.333,0.713,0,1.188-0.675,1.188"/></g><g clip-path="url(#SVGID_2_)"><path fill="none" d="M286.707,139.868c0,1.665-1.012,2.138-2.697,1.188"/></g><g clip-path="url(#SVGID_2_)"><path fill="none" d="M280.976,141.292c0,0.954,1.014,1.429-0.67,1.904c-0.678-0.476-0.338-0.714-0.678-1.191"/></g><g clip-path="url(#SVGID_2_)"><path fill="none" d="M292.79,65.46c2.248,0.476,2.568,1.425,0.644,2.14"/></g><g clip-path="url(#SVGID_2_)"><path fill="none" d="M289.901,67.6c0.319,0.476,0.646,0.713,0.319,1.188c-0.319,0.238-0.64,0-1.279,0"/></g><g clip-path="url(#SVGID_2_)"><path fill="none" d="M292.147,72.115c1.927,2.854-2.566,3.567-2.246,0.478"/></g><g clip-path="url(#SVGID_2_)"><path fill="none" d="M287.015,72.115c0.317,0.714,0.642,1.189,0.317,1.903c-0.642,0-0.642-0.239-1.282-0.474"/></g><g clip-path="url(#SVGID_2_)"><path fill="none" d="M287.015,75.919c0,0.951-0.324,1.665-1.287,1.426"/></g><g clip-path="url(#SVGID_2_)"><path fill="none" d="M290.863,79.249c0,3.09-3.531,2.376-3.207-0.238"/></g><g clip-path="url(#SVGID_2_)"><path fill="none" d="M283.804,79.485c0.318,0.714,0.964,0.952,0.318,1.665c-0.641-0.238-0.641-0.713-0.961-1.188"/></g><g clip-path="url(#SVGID_2_)"><path fill="none" d="M292.79,76.157c0,0.953-0.318,1.665-1.606,1.902"/></g><g clip-path="url(#SVGID_2_)"><path fill="none" d="M284.768,74.256c0,0.476-0.322,0.713-0.646,1.188"/></g><g clip-path="url(#SVGID_2_)"><path fill="none" d="M300.472-1.34c2.079,1.9,0.521,4.279-1.043,1.664"/></g><g clip-path="url(#SVGID_2_)"><path fill="none" d="M301.51,4.603c0.262,0.475,0,0.951,0,1.426c-0.518,0.238-0.518,0.238-1.038,0"/></g><g clip-path="url(#SVGID_2_)"><path fill="none" d="M295.792,3.415c0.261,0.951,0.781,1.188,0.261,2.139c-0.779-0.237-0.521-0.713-0.779-1.188"/></g><g clip-path="url(#SVGID_2_)"><path fill="none" d="M298.393,8.645c0.257,0.474,0.519,0.713,0.257,1.189c-0.52,0.474-0.776,0-1.297-0.238"/></g><g clip-path="url(#SVGID_2_)"><line fill="none" x1="295.01" y1="9.119" x2="295.273" y2="9.119"/></g><g clip-path="url(#SVGID_2_)"><path fill="none" d="M295.792,11.497c4.159,4.753-2.86,4.753-1.562,1.187"/></g><g clip-path="url(#SVGID_2_)"><path fill="none" d="M293.451,16.964c0.779,0.714,1.302,1.188,0.779,2.139c-0.516,0-0.516-0.474-0.779-0.474"/></g><g clip-path="url(#SVGID_2_)"><path fill="none" d="M293.715,20.768"/></g><path clip-path="url(#SVGID_2_)" fill="#FFFFFF" stroke="#868686" stroke-width="0.75" d="M294.37-31.768 c-1.82,6.182-2.597,10.459-3.901,11.173c-4.701,2.58-12.999,4.041-18.198,3.803c-5.2-0.237-11.181-1.902-13.522-7.606 c-2.338-5.706-2.598-7.37-1.036-12.362c1.561-4.992,1.561-6.419,7.538-10.46c5.979-4.041,9.359-6.655,12.48-5.229 c9.162,4.189,8.422,4.436,13.259,6.181c9.881,3.566,4.421,11.649,3.381,13.789"/><g clip-path="url(#SVGID_2_)"><path fill="none" d="M279.031-34.621c3.12,1.189,3.379,4.516,0,4.992c-2.6,0.238-4.422-2.376-1.563-3.802 c-1.818-0.953-1.037-1.189-0.518-2.141"/></g><g clip-path="url(#SVGID_2_)"><path fill="none" d="M280.85-40.803c4.941,3.567-1.818,5.231-1.301,2.141"/></g><g clip-path="url(#SVGID_2_)"><path fill="none" d="M275.91-39.613c0.259,0.712,0.521,1.189,0.259,1.902c-1.039,0.238-0.778-0.239-1.299-0.713"/></g><g clip-path="url(#SVGID_2_)"><path fill="none" d="M270.191-35.333c10.139,0.237-3.121,10.935-2.342,3.09"/></g><g clip-path="url(#SVGID_2_)"><path fill="none" d="M270.969-39.376c0.261,0.714,0.781,1.188,0,1.904c-0.519-0.238-0.777-0.477-1.3-0.716"/></g><g clip-path="url(#SVGID_2_)"><path fill="none" d="M274.35-43.656c2.859,3.331-2.079,2.617-3.899,1.428c0.257-0.475,0.519-1.188,0.779-1.664"/></g><g clip-path="url(#SVGID_2_)"><path fill="none" d="M279.809-44.607c0,0.715,0.521,1.19-0.52,1.428c-0.518,0-0.518-0.477-0.779-0.95"/></g><g clip-path="url(#SVGID_2_)"><path fill="none" d="M288.908-40.803c4.421,4.518-6.239,3.093-2.081,0.953"/></g><g clip-path="url(#SVGID_2_)"><path fill="none" d="M283.712-43.179c0.519,0.714,0.779,1.189,0,1.664"/></g><g clip-path="url(#SVGID_2_)"><path fill="none" d="M284.748-35.81c6.762,0.713-2.338,5.944-1.036,1.189"/></g><g clip-path="url(#SVGID_2_)"><path fill="none" d="M282.93-29.391c0.26,0,0.26,0,0.26,0"/></g><g clip-path="url(#SVGID_2_)"><path fill="none" d="M285.791-24.874c0,0.713,0.779,0.713,0.257,1.426c-1.557,0.237-1.038-0.477-1.3-0.713"/></g><g clip-path="url(#SVGID_2_)"><path fill="none" d="M278.771-25.586"/></g><g clip-path="url(#SVGID_2_)"><path fill="none" d="M279.289-22.498c0.26,0.476,0.52,0.951,0,1.425c-0.518,0.239-0.518,0-1.041-0.237"/></g><g clip-path="url(#SVGID_2_)"><path fill="none" d="M276.951-27.013c4.678,0.711,1.038,3.327-1.301,3.327c-1.041-0.951-1.041-1.9-0.78-2.853"/></g><g clip-path="url(#SVGID_2_)"><path fill="none" d="M268.629-26.539c0.524,0.237,1.04,0,1.302,0.476c-0.777,0-1.041-0.476-2.081-0.951"/></g><g clip-path="url(#SVGID_2_)"><path fill="none" d="M273.05-22.259c0.261,0.237,0.261,0.713,0.261,1.187c-1.561,0.477-1.819-0.237-2.342-1.187"/></g><g clip-path="url(#SVGID_2_)"><path fill="none" d="M267.329-24.398"/></g><g clip-path="url(#SVGID_2_)"><path fill="none" d="M265.512-40.563"/></g><g clip-path="url(#SVGID_2_)"><path fill="none" d="M274.609-46.982c0.261,0,0.261,0,0.261,0"/></g><g clip-path="url(#SVGID_2_)"><path fill="none" d="M287.089-43.179c-0.777,0-1.562-0.237-1.818-0.95"/></g><g clip-path="url(#SVGID_2_)"><path fill="none" d="M289.429-31.768c0,0.712,0.521,0.951,0,1.664c-0.777-0.475-0.777-0.475-1.041-1.188 c0.264-0.713,0.521,0.236,0.521,0.236"/></g><g clip-path="url(#SVGID_2_)"><path fill="none" d="M282.669-30.104c0.781,0.713,1.562,1.427,1.302,2.378c-1.819,0.236-2.342-0.239-2.601-1.428"/></g><g clip-path="url(#SVGID_2_)"><path fill="none" d="M288.651-28.203c0,0.713,0.516,0.951,0,1.428c-0.781,0-1.3-0.477-1.824-0.951"/></g><path clip-path="url(#SVGID_2_)" fill="#FFFFFF" stroke="#E5AB97" stroke-width="0.75" d="M123.748,188.512 c0.114-0.688,0.076-0.85,0.076-0.85c1.633-0.087,1.91-0.335,3.395-0.641c0.594-0.807,1.921-1.636,3.587-2.139 c1.387-0.417,2.681-0.507,3.6-0.323c5.718-2.833,10.23-7.305,14.206-12.181l-0.048-0.041c4.335-5.865,6.196-11.02,8.129-18.816 c-0.09-0.242-0.035-0.724-0.149-0.845c-0.153-0.496-0.309-0.989-0.462-1.649c0-0.659,0-1.32,0.309-1.978 c0.153-0.495,0.463-0.66,0.308-1.155c-0.308-0.66-0.772-1.153-0.926-1.979c0-0.66,0-1.648,0.154-2.472 c0.155-0.988,0.772-1.814,1.39-2.638c0.308-0.329,1.079-0.329,1.233-0.824c-0.154-0.33-0.308-0.33-0.617-0.661 c-0.309-0.328-0.616-0.823-0.771-1.483c-0.308-1.318-0.308-2.473,0.308-3.791c0.463-1.317,1.542-2.472,2.779-2.966 c0.772-0.33,1.542-0.33,2.314-0.166c0.462,0.166,0.925,0.329,1.388,0.329c0.31,0.165,0.31,0,0.31-0.329 c-0.157-0.494-0.157-0.989-0.157-1.483c0.157-1.154,0.772-2.638,1.544-3.462c0.618-0.495,1.08-0.989,1.697-1.317 c0.462-0.331,0.772-0.331,1.389-0.331c0.464,0,0.927-0.165,1.235,0.166c0.153,0.166,0.309,0.33,0.462,0.33 c0.156-0.826,0.464-1.32,1.389-1.32c1.081,0,1.852,1.156,2.006,1.978c0.155,0.66,0.309,1.155,0,1.649 c-0.154,0.495-0.463,0.989-0.771,1.318c-0.618,0.825-1.236,1.318-2.16,1.649c-0.155,0-0.774,0.164-0.774,0.329 c-0.153,0.166,0.156,0.66,0.156,0.823c0.153,0.825,0,1.814-0.156,2.638c-0.153,1.979-1.695,3.956-3.394,4.451 c0,0.166,0.155,0.494,0.155,0.661c0.154,0.494,0.309,0.823,0.309,1.154c0,1.153,0,2.636-0.616,3.625 c-0.462,0.99-1.237,1.65-2.163,2.143c-0.615,0.165-1.078,0.165-1.697,0.165c0.156,0.661,0.309,0.991,0.156,1.648 c-0.156,0.66-0.31,0.989-0.772,1.486c-0.618,0.989-1.542,0.989-2.47,1.318c0,0.824,0,1.647-0.31,2.473 c-0.193,0.518-0.52,0.962-0.919,1.351c-0.889,3.557-1.775,6.584-2.888,9.39c5.157-6.11,10.865-11.973,16.679-17.183l-0.098-0.162 c0.339-0.233,0.673-0.446,1.005-0.652c0.036-0.032,0.073-0.061,0.107-0.093l-0.159-0.111c1.721-2.859,2.121-5.216,2.672-8.481 c0.262-1.546,0.567-3.291,1.047-5.323l-0.007-0.003c-1.081-0.823-1.235-2.636-0.927-3.791c0.155-0.989,0.462-2.143,1.08-2.967 c0.155-0.164,0.463-0.494,0.773-0.494c0.152,0,0.307,0,0.462-0.166c-0.156-0.495-0.772-0.988-0.926-1.483 c-0.31-1.154,0-2.473,0.308-3.626c0.156-0.825,0.309-1.32,1.081-1.978c0.306-0.495,0.77-0.99,1.235-1.155 c0.77-0.331,1.389-0.165,2.007,0c0-0.165-0.156-0.495-0.309-0.823c-0.157-0.495-0.157-0.99-0.157-1.485 c0.157-1.483,0.773-2.472,1.544-3.46c0.616-0.66,1.079-1.484,1.698-1.979c0.616-0.495,1.079-0.495,1.85-0.66 c0.464,0,0.618,0,1.082,0.165c0.152,0,0.308,0.165,0.461,0c-0.461-0.494-0.461-1.483-0.153-2.307 c0.153-0.494,1.081-1.483,1.696-1.154c0.771,0.165,1.852,1.154,2.162,1.979c0,0.495-0.156,1.318-0.618,1.648 c0.462,0.33,0.771,0.825,1.081,1.318c0.308,1.155,0.153,1.814-0.156,2.803c-0.307,0.495-0.463,0.825-0.772,1.153 c-0.463,0.495-0.77,0.825-1.232,1.154c-0.31,0.33-0.771,0.495-1.233,0.825c-0.311,0.164-0.619,0.164-0.773,0.658 c0,0.33,0.311,0.825,0.311,1.32c0,0.494-0.156,1.153-0.311,1.812c-0.153,1.485-0.771,2.803-1.543,3.957 c-0.462,0.66-0.771,1.319-1.234,1.65c-0.616,0.328-1.079,0.658-1.542,0.988c-0.308,0.494-0.772,0.659-1.388,0.494 c0.463,0.165,0.306,1.153,0.306,1.647c0.157,0.825,0.157,1.649-0.462,2.473c-0.154,0.331-0.463,0.496-0.773,0.66 c-0.306,0.329-0.462,0.494-0.771,0.66c-0.588,0.472-1.317,0.638-2.054,0.653c-0.464,1.968-0.76,3.677-1.018,5.188 c-0.345,2.035-0.65,3.81-1.262,5.601c2.707-2.263,5.412-4.373,8.069-6.272v-0.001c2.636-2.314,4.221-5.694,5.899-9.271 c0.789-1.675,1.603-3.396,2.554-5.089l-0.769-0.204c-0.463,0.33-0.463-0.824-0.617-1.154c0-0.989,0.154-1.648,0.463-2.637 c0.311-0.825,0.773-1.484,1.389-2.143c0.309-0.165,0.618-0.496,0.926-0.66c0.155,0,0.309,0,0.309-0.164 c-0.309-0.494-0.771-1.154-0.926-1.814c-0.152-0.823,0-1.978,0.31-2.637c0.463-1.155,1.39-1.978,2.467-2.473 c0.618-0.33,1.544,0.164,2.163-0.33c-0.927-1.813-0.619-3.956,0.77-5.44c0.771-0.989,1.697-1.153,2.777-0.824 c0.462,0,0.772,0.165,1.082,0.329c0.153,0.165,0.307,0.331,0.463,0.165c0-0.329,0-0.494,0.152-0.823 c0.31-0.825,0-1.484,0.464-2.308c0.31-0.33,0.926-0.99,1.387-1.154c0.464-0.33,1.083,0,1.546,0.33 c0.771,0.495,1.387,1.979,1.08,2.967c0,0.66-0.31,1.318-0.619,1.813c-0.153,0.165-0.309,0.33-0.461,0.66 c1.698,0.989,1.851,3.626,1.08,5.275c-0.619,1.155-1.08,2.308-2.162,2.803c-0.616,0.495-1.541,0.495-2.314,0.33 c-0.615,0-0.925,0.165-0.771,0.824c0.155,0.494,0.462,0.989,0.309,1.319c0,1.153-0.617,2.308-1.079,3.297 c-0.466,0.824-1.236,1.484-2.162,1.484c-0.309,0-0.924-0.167-1.233-0.495c0.154,1.152,0.618,2.307-0.308,3.296 c-1.04,1.267-2.363,1.312-3.833,0.875c-1.042,1.792-1.929,3.657-2.778,5.471c-0.794,1.691-1.575,3.331-2.453,4.869 c0.081-0.021,0.152-0.033,0.234-0.052c1.225-0.765,2.438-1.498,3.621-2.15c6.453-3.564,11.935-10.037,16.34-15.238l1.247-1.468 l-0.034-0.054c-0.618-0.165-1.081-1.154-1.234-1.648c-0.156-0.99-0.156-2.143,0-3.132c0.309-1.319,0.464-2.144,1.697-2.803 c0.463-0.33,1.543-0.494,1.543-1.154c-0.156-0.494-0.465-0.989-0.618-1.483c-0.153-0.495-0.309-0.989-0.309-1.649 c0-0.989,0.462-2.307,1.08-3.131c0.618-0.99,1.235-1.814,2.161-2.308c0.615-0.33,1.234-0.66,2.007-0.33c0-0.165,0-0.33,0-0.494 c0-0.33,0-0.494,0-0.825c0.153-0.659,0.306-1.154,0.462-1.813c0.616-1.318,1.541-2.308,2.933-1.648 c1.078,0.494,1.698,1.648,1.389,2.967c0,0.494-0.311,0.989-0.464,1.483c-0.152,0.33,0.153,0.494,0.31,0.825 c0.464,0.659,0.464,1.318,0.464,2.143c0,0.659,0,1.483-0.157,2.308c-0.307,0.494-0.463,1.153-0.925,1.483 c0,0.164-0.463,0.659-0.463,0.824c0,0.165,0.153,0.33,0.153,0.494c0.157,0.66,0.157,1.318,0,1.814 c-0.307,0.66-0.616,1.482-1.079,2.142c-0.462,0.496-1.232,0.825-1.852,1.155c-0.309,0-0.771,0.165-1.08,0.165 c0.153,0.495,0,0.989,0,1.649c-0.153,0.824-0.463,1.483-1.082,2.143c-0.463,0.824-1.388,0.989-2.158,1.154 c-0.619,0.133-1.139,0.471-1.64,0.687l0.317,0.309l-1.293,1.523c-1.635,1.93-3.417,4.03-5.344,6.104 c4.622-1.026,10.318-2.459,15.076-5.042c0.134-1.564,0.16-2.984,0.752-4.405c0.31-1.153,1.389-2.143,2.47-2.472 c0.463-0.166,0.927-0.166,1.39,0c0.308,0,0.924,0.659,1.387,0.494c0.31,0,0.618-1.482,0.926-1.979 c0.309-0.659,0.926-1.154,1.696-1.648c0.463-0.33,0.927-0.824,1.546-0.989c0.462,0,0.924,0,1.388,0.494 c0.463,0.33,1.08,0.825,1.234,1.484c0.31,0.659,0.462,1.484,0.616,2.144c0,1.154-0.616,1.977-1.541,2.636 c-0.773,0.331-1.853,1.32-2.78,0.825c0.311,0.659,0,1.318-0.307,1.978c-0.462,0.823-0.771,1.813-1.544,2.307 c-0.616,0.495-1.234,0.66-1.85,0.824c-0.618,0.166-1.391,0-1.698-0.329c-0.156,0.329-0.31,0.66-0.463,0.99 c-0.462,0.494-0.771,0.66-1.235,0.824c-0.618,0-1.081,0-1.543-0.33c-0.234-0.125-0.379-0.344-0.568-0.585 c-5.391,2.703-11.64,4.08-16.322,5.099l-1.121,0.243c-2.534,2.489-5.294,4.799-8.283,6.565c2.972-0.214,5.49,0.034,7.807,0.266 c1.567,0.16,3.069,0.305,4.613,0.312c0.363-0.668,0.746-1.208,1.221-1.844c0.464-0.825,0.926-1.155,1.698-1.484 c0.771-0.165,1.081,0,1.697,0.329c0.462,0.166,0.618,0.33,0.927,0.661c0.153,0,0.153-0.166,0.153-0.331 c0.154-0.33,0.309-0.659,0.464-0.988c0.925-0.825,2.007-0.989,3.084-1.154c0.773,0,1.544,0.165,2.162,0.66 c0.309,0.33,1.08,0.987,1.234,1.319c0.309-1.156,1.853-1.979,2.932-1.319c0.927,0.659,1.696,1.978,1.852,2.965 c0.31-0.163,0.927,0,1.233,0.165c0.772,0.331,1.545,0.66,2.162,1.319c1.08,1.154,1.542,2.802,1.232,4.615 c-0.306,1.483-2.313,1.979-3.547,1.649c-1.236-0.33-2.159-0.823-2.47-2.144c0.156,0.329-0.309,0.989-0.463,1.32 c-0.615,0.823-1.541,1.483-2.469,1.813c-1.389,0.165-2.469,0-3.396-0.825c-0.464-0.495-1.078-1.154-0.925-1.814 c-0.153,0.329-0.464,0.66-0.773,0.826c-0.307,0.163-0.771,0.163-1.078,0.163c-0.311,0.167-0.771,0.33-1.081,0.167 c-1.388-0.33-2.161-1.484-2.313-2.804c-0.152,0.989-1.853,0.989-2.469,0.659c-0.51-0.406-1.32-1.15-1.509-1.953 c-1.461-0.028-2.878-0.164-4.346-0.313c-3.524-0.355-7.178-0.705-12.186,0.466c-3.62,2.272-7.393,5.017-11.188,8.09 c3.216-0.768,6.133-0.531,9.148-0.274l2.789,0.179c0.439-0.426,0.918-0.792,1.397-0.587c0.308,0,0.771,0.328,0.927,0.658 c0-0.495,0.307-0.99,0.617-1.32c0.461-0.329,0.924-0.494,1.234-0.822c0.307-0.331,0.615-0.496,0.925-0.661 c0.771-0.33,1.853-0.33,2.623,0c0.618,0.33,0.925,0.661,1.389,1.154c0.153-0.165,0.153-0.493,0.307-0.659 c0.155-0.329,0.464-0.659,0.773-0.989c0.461-0.33,0.927-0.33,1.389-0.496c0.464,0,1.079-0.164,1.543-0.164 c0.618,0,1.544,0.495,2.005,0.99c0.31,0.33,0.31,0.494,0.465,0.825c0.151,0.163,0.309,0.822,0.615,0.822 c0.309,0,0.465-0.165,0.618-0.329c0.154-0.33,0.464-0.659,0.771-0.824c0.309-0.165,0.617-0.165,0.927-0.165 c0.464,0,0.925-0.33,1.543-0.166c1.697,0.33,2.775,2.308,2.775,3.956c0-0.164,0.155-0.164,0.311-0.329 c0.463-0.66,0.926-0.166,1.541,0.165c0.771,0.659,1.235,2.144,1.235,3.131c-0.153,1.32-0.925,1.815-2.005,2.145 c-0.618,0.165-1.389-0.164-1.853-0.825c-0.464,0.661-0.616,0.989-1.388,1.317c-0.926,0.497-2.007,0.497-3.087,0.662 c-0.462,0.165-0.925,0.165-1.39,0c-0.615,0-1.234-0.33-1.698-0.662c-0.461-0.165-1.231-0.656-1.231-1.153 c-0.155,0.331-0.771,0.825-1.081,0.988c-0.773,0.497-1.388,0.331-2.161,0.165c-1.234,0-2.469-1.482-2.159-2.637 c-0.31,0.329-1.081,0.329-1.389,0.495c-0.927,0.331-1.852,0.495-2.775,0.331c-0.465-0.166-0.772-0.331-1.083-0.66 c-0.463-0.166-0.769-0.166-1.078-0.493c-0.463-0.331-0.926-0.827-1.082-1.32c-0.154,0.165-0.31,0.494-0.617,0.494 c-0.443,0-0.744-0.6-0.902-1.086l0.008-0.036h-0.02c0.002,0.01,0.007,0.024,0.012,0.036l-0.022,0.099c0-0.077,0-0.115,0-0.137 l-1.863-0.119c-4.628-0.391-8.667-0.733-13.982,2.523c-3.872,3.425-7.708,7.153-11.374,11.062c2.254-0.752,4.772-1.021,8.013-1.367 l1.24-0.137c0.502-2.177,1.589-4.251,3.924-4.407c0.772,0,1.542,0.331,2.161,0.824c0.462,0.329,0.769,0.825,1.232,1.154 c0.156-0.165,0.156-0.495,0.308-0.66c0.311-0.494,0.774-0.823,1.236-1.318c0.771-0.495,1.697-1.154,2.47-1.319 c0.925-0.329,1.696-0.165,2.468,0.495c0.154,0.165,0.771,0.824,1.08,0.824c0.308-0.165,0.463-0.824,0.463-1.154 c0.463-0.989,1.544-1.486,2.313-1.813c0.463-0.165,0.772-0.494,1.234-0.658c0.617,0,1.236,0.164,1.699,0.33 c1.078,0.329,1.85,0.656,2.623,1.318c0.462,0.658,0.925,1.318,1.387,1.978c0.617-0.66,1.234-1.648,2.161-1.648 c1.079,0,1.851,0.165,2.623,1.153c0.307,0.495,0.464,1.154,0.464,1.813c0,0.331-0.157,0.66-0.157,0.99 c-0.153,0.33-0.153,0.658-0.153,0.988c-0.463,0.824-1.081,0.824-1.852,0.66c0,0.66,0.154,0.988,0,1.482 c-0.463,0.99-1.389,1.649-2.314,2.144c-1.081,0.33-2.469,0.661-3.548,0.165c-1.081-0.329-1.389-0.989-2.007-1.812 c-0.152,0.165-0.152,0.33-0.309,0.494c-0.154,0.33-0.772,0.495-1.079,0.824c-0.31,0.33-0.617,0.494-1.081,0.66 c-0.615,0.165-1.389,0.165-2.005,0.331c-1.699,0-3.549-0.661-4.628-2.144c-0.157,2.966-4.63,3.956-5.866,1.153 c-0.153,0-0.462,0.33-0.618,0.33c-0.616,0.33-1.234,0.495-1.851,0.33c-0.463,0-1.235-0.33-1.698-0.825 c-0.153-0.164-0.153-0.493-0.309-0.659l-0.02-0.073l-1.41,0.155c-5.779,0.618-8.682,0.93-12.03,3.82l-0.076-0.101 c-2.352,2.687-4.618,5.427-6.732,8.198c-4.566,5.982-9.729,11.705-16.579,15.211c-0.422,0.904-1.892,1.905-3.796,2.478 c-1.523,0.458-2.953,0.533-3.875,0.27c-1.671,0.359-3.422,0.605-5.278,0.705C122.642,189.602,123.562,189.63,123.748,188.512z"/><path clip-path="url(#SVGID_2_)" fill="#FFFFFF" stroke="#E5AB97" stroke-width="0.75" d="M127.558,193.589 c-1.687-0.101-3.446-0.256-5.303-0.47c0,0,0.497,0.14,0.582-0.926c0.087-1.064-0.382-1.041-0.382-1.041 c1.683,0.194,3.277,0.338,4.813,0.437c0.77-0.611,2.31-1.005,4.093-0.954c1.614,0.048,3.016,0.449,3.816,1.01 c3.844-0.231,7.383-0.869,10.971-1.934c5.04-1.791,6.907-4.287,9.678-8.012l2.364-3.046l-0.342-0.198v0.166 c-0.619-0.33-0.771-1.32-0.309-1.978c0.153-0.165,0.309-0.331,0.463-0.495c0-0.165,0.153-0.165,0.153-0.33c0.156,0,0.462,0,0.619,0 c-0.309-0.496-0.772-0.988-1.082-1.484c-0.307-0.824-0.153-1.319,0.31-1.978c0.153-0.495,0.309-0.99,0.772-1.318 c0.308-0.166,0.77-0.33,1.079-0.495c0.619,0,0.928,0.165,1.542,0.165c-0.614-0.165-0.923-1.32-1.079-1.814 c0-0.989,0.156-2.144,0.774-2.803c0.614-0.496,1.389-1.154,2.159-0.989c0.309,0,1.235,0,1.388,0.329 c0.156-0.823,0.771-1.483,1.082-2.144c0.463-0.494,1.388-1.154,2.006-0.823c1.079,0.33,1.079,1.814,1.079,2.801 c0,0.826-0.307,1.979-0.77,2.804c-0.155,0.33-0.774,0.824-1.081,0.824c-0.308,0.166-0.771,0-0.771,0.494 c0.154,0.165,0.309,0.495,0.309,0.66c0,0.165,0,0.329,0,0.495c0.155,0.329,0.309,0.823,0.155,1.318c0,1.153-0.464,1.978-1.39,2.638 c-0.462,0.494-1.081,0.988-1.697,1.318c0,0.33,0.153,0.66,0.153,1.154c0,0.493-0.153,1.319-0.462,1.649 c-0.307,0.494-1.235,0.823-1.544,0.987c-0.614,0.165-1.232,0-1.851,0l0,0l-2.577,3.322c-1.212,1.629-2.316,3.109-3.64,4.429 c1.739-0.534,3.532-1.063,5.326-1.562l-0.011-0.04c3.709-1.292,5.157-2.655,6.833-4.237c1.002-0.945,2.126-1.998,3.813-3.102 c-0.517-0.76-0.781-1.528-0.638-2.436c0.153-0.989,0.308-1.813,0.771-2.473c0.617-0.495,1.079-0.825,1.852-0.825 c0.462,0.166,0.925,0.33,1.234,0.494c0.309-0.494,0.309-1.152,0.463-1.648c0.309-0.822,0.772-1.647,1.388-2.309 c0.772-0.492,1.387-0.987,2.316-0.822c0.306,0,0.771,0,1.079,0.165c0.309,0.165,0.156,0.329,0.462,0c0,0,0-0.495,0-0.66 c0.157-0.496,0.463-0.824,0.772-1.154c0.463-0.659,0.926-0.99,1.542-1.485c1.238-0.823,2.778-1.152,3.705,0 c0.155-0.163,0.155-0.494,0.155-0.823c0.154-0.329,0.463-0.66,0.771-0.825c1.233-0.823,2.313-0.165,3.24,0.825 c0.309,0.329,0.462,0.66,0.617,1.153c0.309,0.825,0.309,1.155,0,1.978c-0.309,0.661-0.771,1.156-1.389,1.648 c-0.618,0.167-1.39,0.167-1.853,0.497c0,0.165,0,0.33,0.156,0.495c0.154,0.33,0.307,0.988,0.307,1.482 c0.155,1.319-0.307,2.474-1.079,3.462c-0.771,0.99-2.006,1.648-3.241,1.319c-0.554,0-1.337-0.281-1.833-0.81 c0.028,0.161-0.019,0.377-0.019,0.48c-0.156,0.659-0.619,1.152-1.234,1.482c-0.62,0.66-1.698,0.99-2.626,0.825 c-0.463-0.165-0.769-0.66-1.235-0.825c0.157,0.33,0.157,0.825,0.157,1.154c-0.309,0.659-1.081,0.988-1.544,1.319 c-0.462,0.33-0.926,0.33-1.542,0c-0.315-0.113-0.565-0.377-0.836-0.588c-2.112,1.232-3.333,2.377-4.508,3.488 c-0.397,0.375-0.792,0.745-1.209,1.11c2.611-0.546,5.097-0.934,7.282-1.043c1.331-0.065,2.701-0.113,4.091-0.147 c3.062-0.845,4.479-1.755,6.214-2.872c0.877-0.564,1.87-1.194,3.161-1.887v-0.04c0.311-0.661,0.464-1.483,0.772-2.143 c0.31-0.495,0.772-1.318,1.235-1.649c0.463-0.495,1.234-0.824,1.852-0.824c0.155,0,0.463,0.165,0.771,0.165 c0.152,0,0.463,0.33,0.771,0.165c0.155-0.165,0.155-0.989,0.31-1.318c0.154-0.826,0.463-1.813,1.08-2.308 c0.619-0.495,1.389-1.154,2.161-1.154c0.771-0.166,1.233,0,1.851,0.329c0.309,0.165,0.617,0.33,0.772,0.66 c0.154,0,0.308,0.495,0.462,0.495c0.309,0.165,0.309,0.165,0.617-0.166c0.31-0.329,0.617-0.659,1.08-0.824 c0.617-0.165,1.389-0.494,2.005-0.332c0.619,0.332,1.236,0.497,1.854,0.992c0.925,0.824,1.387,2.471,0.616,3.461 c-0.772,0.825-2.313,1.155-3.396,0.99c0,0.493,0,0.823-0.31,1.318c-0.307,0.824-0.462,1.647-1.389,1.978 c-0.618,0.33-1.541,0.495-2.313,0.495c-0.463,0.166-1.232-0.165-1.541-0.66c0.152,0.495-0.31,0.989-0.619,1.319 c-0.463,0.824-1.08,0.989-1.852,1.319c-0.772,0.329-1.08,0.166-1.697-0.495c0,0-0.174-0.189-0.307-0.399 c-0.184,0.889-1.244,1.612-2.008,1.882c-0.461,0.166-1.544,0.166-2.163-0.165c-0.233-0.25-0.291-0.596-0.44-0.965 c-0.922,0.522-1.691,1.012-2.38,1.456c-0.597,0.383-1.173,0.751-1.794,1.108c1.336-0.001,2.686,0.009,4.036,0.026l8.191,0.063 l2.246-0.589c2.318-0.539,4.155-0.972,8.24-4.705c0.164-0.585,0.444-1.047,0.729-1.503c0.31-0.33,0.462-0.826,0.925-1.154 c0.311-0.164,0.773-0.164,1.081-0.329c0.309,0,0.463,0.329,0.771,0.329c-0.154-0.824,0.463-1.649,0.926-2.309 c0.464-0.989,1.235-1.813,2.313-2.142c0.311-0.166,0.773-0.166,1.235,0c0.309,0,0.617,0.329,0.927,0.165 c0.154,0,0.308-0.66,0.308-0.825c0.311-0.495,0.617-0.989,1.079-1.318c0.464-0.33,1.082-0.495,1.543-0.66 c0.773-0.331,1.391,0,2.162,0.165c0.925,0.165,2.006,0.824,2.314,1.813c0.309,0.66,0.154,1.647-0.464,2.309 c-0.308,0.165-0.616,0.33-1.079,0.33c-0.154,0-0.617,0-0.771,0.164c0.771,1.319,0.154,2.637-0.771,3.627 c-0.617,0.826-1.543,1.648-2.625,1.483c-0.615,0-1.077-0.331-1.541-0.824c0.464,0.989-0.618,2.143-1.234,2.472 c-0.618,0.495-1.235,0.66-2.007,0.329c-0.31-0.165-0.618-0.329-0.925-0.658c0-0.165-0.156-0.33-0.156-0.33 c-0.308,0.33-0.462,0.823-0.926,1.154c-0.308,0.33-0.926,0.66-1.387,0.823c-0.799,0.286-1.596-0.167-2.099-0.825 c-2.146,1.862-3.725,2.833-5.098,3.419c3.532,0.181,6.878,0.394,9.918,0.61c0.727-0.644,1.324-1.42,2.061-2.05 c0.618-0.824,1.698-1.154,2.623-1.483c0.771-0.33,1.697-0.33,2.469,0.166c0.462,0.163,0.927,1.152,1.388,0.988 c0.158-0.166,0.311-0.495,0.465-0.66c0.307-0.329,0.771-0.494,1.234-0.659c0.771-0.33,2.161-0.33,3.087-0.165 c0.617,0.165,1.234,0.496,1.696,0.989c0,0.165,0.309,0.659,0.464,0.659c0.153,0.165,0.462,0,0.615,0 c0.772-0.33,1.698-0.494,2.623-0.494c0.929,0,1.545,0.494,2.007,1.154c0.153,0.33,0.31,0.823,0.463,0.823 c0.153,0.165,0.311,0,0.618,0c0.617-0.164,1.852-0.164,2.468,0.165c0.618,0.495,0.928,1.65,0.928,2.308 c0.154,0.826-0.155,1.813-0.464,2.474c-0.618,0.658-1.852,0.823-2.777,0.823c-0.462,0-0.926-0.33-1.389-0.658 c-0.309,0-0.772-0.331-0.772-0.66c0.153,0.495-0.771,1.483-0.926,1.813c-0.771,0.99-2.006,1.154-3.088,1.319 c-1.388,0-2.159-0.825-3.238-1.319c-0.619-0.495-0.771-0.989-1.08-1.649c-0.154,0.496-0.464,0.824-0.772,1.154 c-0.771,0.989-1.39,1.319-2.469,0.989c-0.925-0.164-1.696-0.659-2.314-1.318c-0.309-0.328-0.925-1.155-0.925-1.647 c-0.154,0-0.464,0.163-0.773,0.329c-0.615,0.33-1.233,0.164-2.005,0c-0.618,0-1.081-0.166-1.543-0.66 c-0.193-0.206-0.269-0.473-0.372-0.728c-4.531-0.326-9.81-0.646-15.313-0.864c0.418,0.24,0.832,0.489,1.263,0.749l2.493,1.442 l-0.414,0.886c0.771-0.825,1.695-1.32,2.775-1.648c1.08-0.332,2.162,0.163,3.241,0.494c0.924,0.329,1.544,0.659,1.853,1.647 c0.152,0.33,0.152,0.825,0.307,1.154c0.156,0.329,0.156,0.329,0.463,0.164c0.927-0.33,1.853-0.659,2.932-0.823 c0.93,0,2.161-0.166,2.933,0.33c0.772,0.659,1.853,1.319,2.161,2.308c0.154,0.33,0.154,0.823,0.309,0.988 c0.31,0.33,0.772,0,1.08-0.166c0.771-0.163,1.543,0.166,2.158,0.661c0.619,0.658,1.237,1.647,1.39,2.636 c0.619,2.309-2.005,3.792-4.01,3.298c-0.463-0.166-0.772-0.496-1.235-0.824c0-0.166-0.308-0.495-0.465-0.495 c-0.153,0-0.615,0.495-0.925,0.66c-0.616,0.494-1.388,0.823-2.161,0.823c-1.387,0-2.931-0.329-3.855-1.318 c-0.266-0.284-1.107-1.183-0.832-1.742c-0.25,0.109-0.659,0.148-0.866,0.258c-0.926,0-1.851-0.164-2.623-0.66 c-0.772-0.329-1.698-0.988-2.007-1.978c-0.153-0.493,0-0.989,0-1.482c-0.153,0.163-0.616,0.493-0.926,0.493 c-0.308,0.166-0.615-0.165-0.925-0.165c-0.618-0.329-1.081-0.494-1.544-0.988c-0.463-0.495-0.771-1.318-0.771-2.144 c0-0.329,0-0.494,0.156-0.824c0-0.165,0.152-0.165,0-0.329l0.008-0.002l-1.612-0.934c-2.175-1.317-3.739-2.259-7.083-2.674 c-3.811-0.078-7.62-0.09-11.261,0c-0.266,0.072-0.544,0.142-0.833,0.212c1.288,0.681,2.653,1.574,4.313,2.734l-0.089,0.146 c0.526-0.044,1.104-0.142,1.586-0.142c0.618,0.166,1.391,0,2.006,0c0.464,0,1.082,0.331,1.389,0.496 c0.309,0.328,0.465,0.823,0.771,0.988c0.928-0.33,1.544-0.66,2.47,0c0.771,0.329,1.389,1.155,1.544,1.978 c0.152,0.329,0,0.66,0.463,0.825c0.306,0,0.771,0,1.079,0c1.08,0,2.469,0.658,2.932,1.978c0.154,0.494,0,1.318,0.311,1.483 c0.306,0.329,0.771,0.494,0.924,0.988c0.463,0.66,0.617,1.484,0.463,2.309c-0.154,0.493-0.615,1.319-0.924,1.647 c-0.463,0.661-0.773,0.826-1.547,0.826c-0.462,0-0.77,0-1.078-0.497c-0.309-0.164-0.463-0.493-0.463-0.823 c-0.772,1.319-2.777,0.823-3.855,0.33c-0.617-0.494-1.546-1.154-1.702-2.144c-0.152-0.659,0-0.989,0.156-1.649 c-1.079,0.99-2.777,1.319-4.011,0.494c-0.771-0.494-1.233-0.988-1.699-1.648c-0.308-0.987-0.153-1.318,0.309-1.977 c-0.152-0.165-0.309,0-0.462,0c-0.463,0.164-1.08,0-1.389-0.165c-0.619-0.166-0.925-0.496-1.236-0.99 c-0.309-0.494-0.309-0.661-0.152-1.154c-0.31-0.33-0.619-0.165-0.773-0.825c0-0.33,0.154-0.824,0.31-0.989 c0.153-0.165,0.463-0.33,0.463-0.495l0.134-0.064c-3.776-2.567-8.9-3.393-8.9-3.393c-2.56,0.368-5.374,0.984-8.243,1.727 c1.14,0.341,2.311,0.843,3.541,1.51c1.191-0.165,2.176-0.353,3.283,0.386c0.307,0.33,0.463,0.659,0.463,0.989 c0.153,0.33,0.308,0.66,0.153,0.99c0.309,0,0.773-0.165,0.927-0.165c0.616,0,1.234,0.494,1.852,0.659 c0.926,0.495,1.389,1.483,1.698,2.473c0.616-0.33,1.232-0.493,1.851-0.493c0.926-0.165,2.006,0.329,2.779,0.99 c0.769,0.493,1.388,1.152,1.695,2.141c0.155,0.66,0.155,1.649-0.308,2.143c0.463,0.496,0.772,0.99,1.232,1.485 c0.156,0.493,0.619,0.988,0.619,1.482c-0.155,0.33-0.463,0.661-0.773,0.989c-0.615,0.494-1.851,0.329-2.622-0.166 c-0.463-0.33-0.773-0.659-1.079-1.152c0-0.166,0-0.497-0.156-0.661c-0.153,0.33-0.617,0.495-1.079,0.495 c-0.928,0-1.697-0.166-2.315-0.661c-1.233-0.657-1.698-1.647-1.543-2.966c-0.463,0-0.772,0.33-1.236,0.33 c-0.616,0.165-1.388,0-2.005-0.33c-1.081-0.496-1.697-1.813-1.391-2.967c-1.388,0-2.93-0.989-3.854-1.813 c-0.463-0.658-1.082-1.648-1.082-2.473c0-0.273,0.107-0.547,0.232-0.821c-2.184-0.907-4.149-1.162-6.272-0.837l-0.007-0.048 c-2.922,0.866-5.761,1.775-8.289,2.585l-0.21,0.068c-0.37,0.12-0.738,0.229-1.104,0.338c-0.144,0.05-0.28,0.104-0.43,0.154 l-0.006-0.024c-3.581,1.034-7.12,1.653-10.947,1.882c-0.79,0.583-2.291,0.956-4.026,0.904 C129.72,194.479,128.372,194.111,127.558,193.589z"/><path clip-path="url(#SVGID_2_)" fill="#FFFFFF" stroke="#E5AB97" stroke-width="0.75" d="M122.989,196.887 c0,0,0.342,0.122,0.417-0.849s-0.746-1.063-0.746-1.063c1.815,0.119,3.744,0.371,5.727,0.711c0.896-0.335,2.292-0.399,3.817-0.103 c1.681,0.328,3.061,1.006,3.734,1.737c4.829,1.234,9.568,2.757,13.463,4.121c5.868,1.68,8.998,1.315,14.179,0.713l0.739-0.087 l0.003,0.003c0.239-0.107,0.476-0.211,0.715-0.34c0.464-0.164,0.772,0,1.08,0.331c0.805-0.118,0.773,0.66,1.082,0.66 c0.615,0.33,1.079-0.165,1.541-0.496c1.082-0.329,2.47,0.331,3.241,1.153c0.308,0.331,0.462,0.495,0.925,0.166 c0.617-0.328,1.236-0.823,2.007-0.659c0.617,0,1.389,0.493,1.852,0.988c0.309,0.166,0.616,0.826,1.08,0.826 c0.154,0,0.309,0,0.464-0.166c0.463,0,0.926,0,1.388,0c0.772-0.164,1.235,0.329,1.852,0.823c0.463,0.495,0.772,1.155,0.928,1.814 c0,0.823-0.31,1.319-0.928,1.648c-0.617,0.66-2.161,0.33-2.623-0.659c-0.463,1.152-2.469,1.152-3.395,0.989 c-1.541-0.164-3.704-0.989-3.704-3.131c-0.463,0.494-1.696,0.33-2.314,0.164c-0.616-0.164-1.234-0.661-1.543-1.482 c-0.461,0.822-1.542,0.493-2.314,0.33c-0.463,0-0.928-0.167-1.389-0.496c-0.073-0.078-0.148-0.268-0.221-0.446l-0.265,0.032 c-2.461,0.286-4.525,0.523-6.674,0.509c2.3,1.094,6.871,3.475,6.871,3.475c0.115,0.119,2.805,1.854,4.053,2.642l0.01-0.024 c3.843,1.854,8.172,1.331,13.183,0.725l2.793,0.012c1.235-1.485,2.932-3.463,4.939-2.967c0.77,0,1.698,0.329,2.16,0.822 c0.309,0.167,0.309,0.661,0.615,0.826c0.464-0.33,0.926-0.496,1.392-0.66c0.77,0,1.231-0.33,1.851-0.33 c1.234,0.163,2.623,0.493,3.24,1.814c0.155,0.164,0.308,0.494,0.463,0.657c0,0.166,0,0.495,0.156,0.661 c0.152,0.166,0.307-0.166,0.461-0.331c0.462-0.33,0.616-0.33,1.08-0.493c0.771-0.166,1.234,0,1.851,0 c0.925,0,1.389,0.329,2.161,0.824c0.771,0.66,1.08,1.813,0.926,2.802c-0.155,0.494-0.616,0.989-1.08,1.154 c-0.463,0.331-1.234,0.166-1.543,0.495c-0.152,0.166-0.31,0.494-0.464,0.66c-0.153,0.163-0.463,0.494-0.616,0.659 c-0.771,0.495-1.853,0.495-2.623,0.331c-0.771,0-1.541-0.331-2.005-0.989c-0.462-0.494-0.31-0.824-0.462-1.319 c-0.311,0.33-0.618,0.66-0.928,0.989c-0.771,0.493-1.698,0.493-2.625,0.659c-0.771,0-1.541-0.329-2.159-0.988 c-0.31-0.165-0.771-0.66-0.925-0.989c0-0.166,0-0.494-0.156-0.66c-0.307,0.331-0.615,0.66-1.078,0.66 c-0.925,0.166-2.006,0.166-2.776-0.166c-0.913-0.417-1.82-1.421-2.267-2.417l-2.172,0.251c-2.965,0.359-5.832,0.701-8.564,0.508 c0.64,0.437,1.28,0.871,1.932,1.322l9.324,6.479c3.918,1.68,6.881,1.149,10.754,0.443l3.764-0.606 c0.012-0.013,0.021-0.032,0.035-0.046c0.309-0.33,0.617-0.659,1.079-0.987c0.771-0.496,1.695-0.826,2.78-0.989 c0.924-0.165,1.85,0.328,2.775,0.824c0.618,0.166,0.927,0.66,1.391,0.99c0.152-0.824,1.233-1.32,1.851-1.65 c0.771-0.328,1.851-0.657,2.777-0.657c0.464,0,0.926,0.165,1.389,0.494c0.463,0.328,0.926,0.659,1.544,0.989 c0.308,0.165,0.616,0.494,0.925,0.658c0.153,0.33,0.31,0.661,0.464,0.989c0.307-0.329,0.464-0.66,0.771-0.823 c0.307-0.496,0.928-0.824,1.389-1.155c1.08-0.659,2.471-0.659,3.703-0.331c1.234,0.331,2.469,0.826,3.087,1.98 c0.464,0.824,0.616,2.143,0.153,2.967c-0.308,0.496-0.462,0.824-0.927,0.988c-0.461,0.165-1.231,0.165-1.695,0.496 c-0.31,0.165-0.154,0.494-0.31,0.824c-0.154,0.66-0.615,1.483-1.079,1.813c-2.007,1.649-5.246,1.484-6.019-1.318 c-0.926,0.989-2.624,1.483-3.858,1.318c-0.771-0.164-1.697-0.659-2.159-1.483c-0.154-0.164-0.308-0.494-0.464-0.659 c0-0.166-0.154-0.825-0.308-0.99c-0.153-0.164-0.309,0-0.465,0.165c-0.307,0.166-0.616,0.496-1.079,0.496 c-1.08,0.329-2.16,0.329-3.242,0.164c-1.078-0.329-2.312-0.988-3.394-1.647c-0.462-0.496-0.839-0.898-1.128-1.416l-3.436,0.555 c-2.278,0.415-4.403,0.8-6.658,0.669l8.335,5.792l-0.048,0.074c0.56-0.482,1.206-1.087,1.855-1.226 c0.924-0.165,1.851-0.165,2.622,0.331c0.463,0.329,0.926,0.659,1.08,1.318c0.157,0.329,0,0.988,0.157,1.318 c0.461-0.33,1.232-0.33,1.85-0.33c1.234,0,2.316,0.33,3.396,0.66c1.542,0.658,2.469,2.144,2.777,3.793 c0.152-0.166,0.307-0.331,0.616-0.497c0.618,0,1.388,0.167,1.851,0.497c1.081,0.493,2.007,1.318,2.625,2.472 c0.307,0.493,0.307,0.989,0.464,1.483c0,0.658,0.307,0.494,0.771,0.494c1.232-0.166,2.159,0.661,3.086,1.483 c0.615,0.494,1.078,0.989,1.542,1.649c0.309,0.659,0.464,1.482,0.464,2.142c0,0.825,0,1.318-0.31,1.979 c-0.461,0.493-0.771,1.152-1.387,1.483c-1.082,0.824-2.471,0.988-3.705,0.494c-0.618-0.166-1.235-0.66-1.697-1.155 c-0.154-0.33-0.309-0.658-0.462-1.154c-0.464,0.331-0.928,0.661-1.543,0.661c-1.237,0.163-2.314,0-3.24-0.825 c-1.081-0.658-1.852-1.646-2.47-2.967c-0.155-0.329-0.462-0.824-0.462-1.154c0.152-0.165,0.152-0.33,0.152-0.494 c-0.309,0-0.616,0.33-1.08,0.33c-1.079,0-1.853-0.33-2.777-0.989c-0.772-0.33-1.698-1.154-2.007-2.142 c-0.152-0.33-0.307-0.826-0.307-1.155c0-0.164,0.154-0.824,0-0.824c-0.156-0.166-0.462-0.166-0.619-0.166 c-0.464,0-0.618,0-1.231-0.165c-0.926-0.494-2.008-1.154-2.625-2.143c-0.771-1.154-1.08-2.309-0.617-3.792l0.008-0.008 l-12.339-8.575c-0.358-0.157-0.717-0.325-1.088-0.514c0.782,1.461,1.377,2.927,1.979,4.431l0.609,1.491 c0.418-0.217,0.918-0.091,1.417,0.042c0.621,0.165,1.083,0.495,1.546,0.99c0.771,0.989,1.234,1.977,0.925,3.13 c0.153,0.167,0.309,0.167,0.463,0.167c0.462,0,0.771,0,1.234,0.163c0.926,0.331,1.544,0.991,2.008,1.815 c0.461,0.659,0.771,1.319,0.923,2.142c0,0.33,0,0.66,0,0.824c0,0.33-0.31,0.495-0.31,0.825c0.157,0.164,0.31,0.164,0.619,0.164 c0.463,0.166,0.926,0.329,1.234,0.66c0.771,0.824,1.543,1.649,2.161,2.637c0.616,0.989,1.077,2.308,0.77,3.462 c0,0.494-0.306,0.988-0.463,1.318c-0.152,0.166-0.307,0.329-0.462,0.494c0.925,0,0.925,1.318,0.925,1.979 c0,0.988-0.615,1.978-1.697,2.143c-1.233,0.331-2.468-0.496-3.087-1.649c-0.309-0.33-0.461-0.825-0.613-1.319 c0-0.329-0.157-0.658-0.157-0.989c0-0.165,0.157-0.33,0.157-0.493c-0.312,0-0.312,0-0.621,0c-0.461,0-0.925-0.166-1.387-0.495 c-1.082-0.33-2.313-0.988-3.085-1.979c-0.462-0.823-1.083-1.978-0.926-2.801c0.154-0.33,0.154-0.824,0.308-1.154 c0.156-0.166,0.308-0.33,0.308-0.494c-0.462-0.165-0.925,0-1.389-0.331c-0.771-0.329-1.389-0.988-1.853-1.648 c-0.463-0.824-0.925-1.812-0.616-2.637c0-0.494,0.773-1.318,0.464-1.648c0-0.167-0.311-0.167-0.464-0.167 c-0.309,0-0.771-0.163-1.081-0.329c-0.77-0.661-1.233-1.155-1.233-2.309c0-0.659,0.307-1.318,0.77-1.812 c0.309-0.166,0.772-0.661,1.081-0.33l-0.182-1.087c-1.222-3.056-2.375-5.944-5.383-8.899l0.053-0.062l-3.324-2.31 c-2.306-1.597-4.535-3.087-6.744-4.484c1.003,1.991,1.671,4.148,2.406,6.593c0.328-0.04,0.657-0.086,0.983,0.03 c0.462,0.165,0.925,0.657,1.388,0.987c0.462,0.496,0.928,1.32,0.928,1.979c0,0.33-0.157,0.496-0.311,0.825 c0,0-0.309,0.329-0.309,0.494c0,0.165,0.619,0.165,0.771,0.329c0.617,0.166,1.083,0.495,1.544,0.825 c0.926,0.659,1.697,1.318,2.16,2.308c0.309,0.824,0.771,1.483,0.926,2.473c0,0.495,0,1.154-0.309,1.649 c0,0.165-0.309,0.493-0.309,0.824c0,0.329,0.618,0.494,0.771,0.658c0.772,0.659,1.388,1.648,1.697,2.474 c0.309,0.824,0.619,1.813,0.619,2.637c0,0.494-0.156,0.824-0.31,1.154c0,0.165-0.153,0.33-0.309,0.494 c0,0.166-0.153,0.166-0.31,0.329c0,0.166,0.156,0.166,0.156,0.497c0.309,0.33,0.462,0.494,0.462,0.988 c0.154,1.813-1.852,2.637-3.24,2.308c-0.926,0-1.542-0.824-2.005-1.647c-0.156-0.331-0.308-0.661-0.308-0.991 c-0.153-0.329,0.152-0.658,0.152-1.155c-1.54-0.163-2.776-1.318-3.394-2.8c-0.307-0.662-0.616-1.813-0.462-2.64 c0-0.329,0.155-0.66,0.308-1.152c0-0.166,0.31-0.496,0.31-0.825c-0.618-0.166-1.235,0-1.854-0.494 c-0.771-0.494-1.233-1.154-1.541-1.978c-0.31-0.824-0.463-1.979-0.31-2.803c0.156-0.494,0.771-1.154,0.31-1.482 c0-0.167-0.463-0.167-0.619-0.33c-0.463-0.166-0.771-0.495-0.926-0.825c-0.462-0.659-0.462-1.647-0.308-2.307 c0.155-0.99,0.308-1.484,0.926-2.145c0.155-0.163,0.309-0.328,0.464-0.493c0.079-0.085,0.198-0.127,0.318-0.171 c-1.104-3.646-2.052-6.426-4.35-8.979c-3.199-1.862-6.411-3.519-9.789-4.955c1.738,2.034,3.107,4.587,4.163,7.764l0.398,0.076 c1.697-0.494,3.549,0.329,4.165,2.142c0.155,0.66,0.309,1.484,0.155,2.309c-0.155,0.494-0.617,0.824-0.771,1.318 c0.462,0.331,0.925,0.661,1.388,0.988c0.618,0.496,1.236,0.826,1.543,1.484c0.463,0.989,1.389,2.638,0.772,3.793 c-0.309,0.33-0.465,0.659-0.772,1.153c-0.154,0.331,0.156,0.331,0.463,0.66c1.233,0.659,1.696,2.473,1.851,3.791 c0,1.155-0.462,2.309-0.926,3.298c-0.617,0.824-1.852,0.989-2.777,0.824c-0.928-0.33-1.853-1.155-2.316-1.979 c-0.616-1.154-0.462-2.308-0.616-3.461c-0.155,0-0.31,0.165-0.619,0.165c-0.463,0.166-0.771,0-1.233-0.33 c-1.237-0.658-2.007-1.978-2.47-3.297c-0.463-1.154-0.618-2.307-0.463-3.626c0-0.165,0-0.494,0.154-0.66 c0-0.163,0.154-0.493,0.154-0.659c0-0.164-0.308-0.164-0.463-0.164c-0.307,0.164-0.463,0.164-0.77,0.164 c-0.618-0.329-0.928-0.659-1.234-1.155c-0.619-1.317-0.929-2.8-0.619-4.121c0.155-0.657,0.619-1.813,1.235-2.308 c0.462-0.329,1.081-0.66,1.543-0.823l0.104,0.019c-1.673-4.475-4.07-7.48-7.474-9.362l0.035-0.075 c-3.685-1.271-8.041-2.652-12.462-3.785c-0.885,0.39-2.353,0.481-3.969,0.167c-1.757-0.342-3.186-1.068-3.822-1.836 C125.937,197.278,124.633,196.995,122.989,196.887z"/></g><g><path fill="none" d="M276.701,187.186c-0.9,0-1.082,1.262-0.539,1.802c0.539,0.9,1.44,0,1.619-0.721"/></g><g><path fill="none" d="M276.701,183.402c-0.361,0-0.539,0.541,0,0.541"/></g><g><path fill="none" d="M264.45,201.599c-0.901,0.36-0.181,1.803,0.54,1.081"/></g><g><path fill="none" d="M265.352,192.951c-0.181-0.36-0.721,0.36-0.721,0.721c-0.181,0.72,0.54,1.081,1.08,0.72"/></g><g><path fill="none" d="M272.017,198.176c-0.54,0-0.721,0.901-0.181,0.721"/></g><g><path fill="none" d="M269.135,192.771c0-0.54-0.541,0-0.541,0.361c0,1.081,1.081,0.9,1.622,0.36"/></g><g><path fill="none" d="M270.216,185.024c-0.541-0.18-0.901,0.541-0.541,0.721"/></g><g><path fill="none" d="M264.99,187.006c-0.359,0.54-0.18,0.721,0.361,0.901"/></g><g><path fill="none" d="M270.396,186.826c-0.18,0-0.36,0.18-0.36,0.36"/></g><g><path fill="none" d="M275.98,195.654c-0.361-0.36-1.262,1.262,0.182,0.901"/></g><g><path fill="none" d="M271.115,234.93c-0.539,0.179-0.539,0.36-0.179,0.72"/></g><g><path fill="none" d="M274.719,240.694c-0.721-0.54-1.261,0.181-1.08,0.901c0.181,0.72,1.08,0.72,1.261,0"/></g><g><path fill="none" d="M275.441,237.631c-0.181,0.361-0.542,0.361-0.361,0.722"/></g><g><path fill="none" d="M274.899,243.938c-0.901,0-0.901,1.441,0.181,1.081"/></g><g><path fill="none" d="M275.801,247.001c-0.182,0.179-0.182,0.36-0.182,0.54"/></g><g><path fill="none" d="M276.521,241.596c-0.181,0.181-0.181,0.36,0,0.541"/></g><g><path fill="none" d="M267.332,242.137c-0.18-0.901-1.44,0-1.26,0.72c0,0.36,0.9,0.721,1.08,0.18"/></g><g><path fill="none" d="M264.631,247.541c-0.721,0.541,0.18,1.262,0.721,0.541"/></g><g><path fill="none" d="M267.332,248.623c0,0.18,0,0.36-0.18,0.36"/></g><g><path fill="none" d="M267.332,253.667c-0.18,0.36,0,0.72,0.361,0.72c0.359,0,0.54-0.36,0.721-0.54"/></g><g><path fill="none" d="M272.017,250.604c-0.181,0.181-0.54,0.541-0.54,0.721c0.18,0.361,0.54,0,0.54-0.18"/></g><g><path fill="none" d="M264.45,243.217c-0.54,0.18-0.721,1.441-0.181,1.801c0.541,0.181,0.901-0.36,1.082-0.901"/></g><g><path fill="none" d="M264.09,240.515c-0.18,0.18-0.18,0.54,0,0.54"/></g><g><path fill="none" d="M265.352,236.911c-0.361,0-0.901,0.36-0.721,0.901c0.18,0.541,0.9,0,1.08-0.36"/></g><g><path fill="none" d="M267.152,238.172c-0.541,0.181-0.18,0.721,0.18,0.541"/></g><g><path fill="none" d="M268.954,134.038c0.181-0.721-0.721,0-0.901,0.18c-0.18,0.36,0,0.9,0.181,1.081c0.54,0.361,0.901,0,1.261-0.36 "/></g><g><path fill="none" d="M270.216,138.181c0.18-0.18,0-0.18-0.181,0c-0.36,0.18-0.18,0.541,0,0.721"/></g><g><path fill="none" d="M273.639,137.641c-0.181,0-0.721,0.18-0.361,0.541"/></g><g><path fill="none" d="M270.937,142.505c-0.36,0.721,0.179,1.261,0.72,0.721"/></g><g><path fill="none" d="M271.656,139.263c-0.18-0.18-0.541,0-0.541,0.18c0,0.36,0.361,0.36,0.721,0.54"/></g><g><path fill="none" d="M275.98,135.839c-0.361,0.36-1.081,1.621-0.18,1.981c0.72,0.18,1.26-0.541,1.44-1.081"/></g><g><path fill="none" d="M277.241,133.137c-0.359,0-0.54,0.18-0.54,0.541c0,0.18,0.181,0.36,0.54,0.541"/></g><g><path fill="none" d="M277.061,139.263c-0.359,0-0.359,0.36-0.359,0.54c0.181,0,0.181,0,0.359-0.18"/></g><g><path fill="none" d="M272.197,130.975c-0.541,0.541,0.18,1.262,0.721,0.541"/></g><g><path fill="none" d="M277.241,127.011c-0.359,0.18-0.54,0.72-0.359,1.081c0.179,0,0.359-0.18,0.54-0.36"/></g><g><path fill="none" d="M277.422,123.228c-0.361,0-0.54,0.36-0.54,0.541c0.359,0.541,0.721,0,0.721-0.36"/></g><g><path fill="none" d="M279.044,124.489c-0.361,0.18-0.721,0.901-0.361,1.261c0.181,0,0.181-0.18,0.361-0.36"/></g><g><path fill="none" d="M278.323,129.894c-0.361-0.541-0.721,0.72-0.542,0.9c0.361,0.721,0.721,0.18,0.901-0.36"/></g><g><path fill="none" d="M267.873,136.74c-0.541,0-0.36,1.081,0,1.261c0.721,0.36,1.081-0.721,0.9-1.261"/></g><g><path fill="none" d="M267.873,144.487c0,0.18,0.18,0.36,0.36,0.18c0.181,0,0.36-0.54,0.54-0.72"/></g><g><path fill="none" d="M273.458,126.11c0,0.18-0.181,0.36-0.181,0.541c0.181-0.18,0.181-0.18,0.361-0.18"/></g><g><path fill="none" d="M275.08,128.993c-0.181-0.18-0.54,0-0.54,0.18c0.179,0.36,0.721-0.18,0.721-0.36"/></g><g><path fill="none" d="M279.945,63.233c0,0.18,0,0.18-0.181,0.18c-0.181-0.36-0.721,0.721,0.181,0.36"/></g><g><path fill="none" d="M282.287,61.611c-0.542-0.36-0.723,0.18-0.723,0.541"/></g><g><path fill="none" d="M282.287,63.593c-0.181,0-0.361,0.18-0.361,0.18c0.181,0.18,0.181,0.18,0.181,0.18"/></g><g><path fill="none" d="M281.024,69.358c-0.539-0.721-1.079,0.361-0.9,0.901c0.361,0.54,1.081,0,1.262-0.541"/></g><g><path fill="none" d="M282.106,72.962c-0.542-0.361-0.901,0.541-0.361,0.721"/></g><g><path fill="none" d="M283.187,69.899c-0.359,0.18-0.721,0.54-0.179,0.72"/></g><g><path fill="none" d="M275.98,69.899c0,0,0,0,0-0.18c-0.361,0-0.539,0.72-0.361,1.081c0.361,0.541,1.082,0.18,1.082-0.36"/></g><g><path fill="none" d="M275.619,67.017c-0.358,0-0.358,0.36-0.178,0.541"/></g><g><path fill="none" d="M271.836,71.34c-0.899-0.541-0.54,1.441,0.361,0.36"/></g><g><path fill="none" d="M273.639,69.358c-0.181,0.181-0.181,0.181,0,0.361c0.181,0,0.359-0.18,0.359-0.18"/></g><g><path fill="none" d="M271.296,74.944c-0.181,0.36-0.181,0.54,0.181,0.72"/></g><g><path fill="none" d="M272.377,77.646c-0.18,0-0.18,0.18-0.18,0.18"/></g><g><path fill="none" d="M277.422,75.304c-0.361,0.541-0.54,1.622,0.359,1.442c0.542-0.18,0.721-0.901,0.542-1.262"/></g><g><path fill="none" d="M274.359,80.349c-0.181-0.18-0.181-0.18-0.181-0.18c0,0.541,0.361,0.541,0.721,0.18"/></g><g><path fill="none" d="M273.639,82.69c0-0.18-0.181-0.18-0.181-0.36c-0.181,0.36-0.181,1.262,0.181,1.442 c0.54,0,0.901-0.721,1.08-1.082"/></g><g><path fill="none" d="M275.801,82.15l-0.182,0.18c0,0.36,0.361,0.36,0.543,0"/></g><g><path fill="none" d="M278.143,65.215c-0.361,0,0,0.72,0.54,0.54"/></g><g><path fill="none" d="M280.124,66.476c-0.54,0.18-0.54,0.541,0,0.541"/></g><g><path fill="none" d="M283.548,67.917c0-0.18,0-0.18-0.181-0.18h0.181"/></g><g><path fill="none" d="M281.386,21.976c-0.181-0.18-0.542,0.9,0,1.081c0.359,0.18,0.721-0.72,0.721-1.081"/></g><g><path fill="none" d="M280.485,19.813c-0.361,0-0.361,0.54-0.181,0.72"/></g><g><path fill="none" d="M283.008,19.453c-0.361,0.18-0.721,0.541-0.361,0.9c0.54,0.36,0.901-0.36,1.261-0.54"/></g><g><path fill="none" d="M285.17,17.111c-0.361-0.18-0.721-0.18-0.901,0.361c0,0.72,0.721,0.36,0.901,0"/></g><g><path fill="none" d="M286.791,16.39c0,0.18-0.361,0.901,0.179,0.721"/></g><g><path fill="none" d="M283.729,16.39c-0.181,0.18-0.181,0.18-0.181,0.36"/></g><g><path fill="none" d="M279.403,16.57c-0.54,1.082,0.721,1.082,0.721,0.18"/></g><text transform="matrix(1 0 0 1 33.4414 122.2559)" fill="#333333" font-family="Liberation Sans, Helvetica, Arial, sans-serif" font-size="15.6038">กลีบต่อมน้ำนม</text><text transform="matrix(1 0 0 1 33.4414 159.1172)" fill="#333333" font-family="Liberation Sans, Helvetica, Arial, sans-serif" font-size="15.6038">ท่อน้ำนม</text><text transform="matrix(1 0 0 1 33.4414 257.2529)" fill="#333333" font-family="Liberation Sans, Helvetica, Arial, sans-serif" font-size="15.6038">เนื้อเยื่อไขมัน</text><line fill="none" stroke="#1D1D1B" stroke-width="0.75" stroke-linecap="round" stroke-linejoin="round" x1="156.065" y1="155.957" x2="108.5" y2="155.957"/><line fill="none" stroke="#333333" stroke-linecap="round" stroke-linejoin="round" x1="183" y1="119" x2="79.884" y2="119"/><line fill="none" stroke="#333333" stroke-linecap="round" stroke-linejoin="round" x1="113.505" y1="253.5" x2="183" y2="253.5"/></svg>